<svg xmlns="http://www.w3.org/2000/svg" viewBox="0 0 161 138" width="161" height="138">
<path d="M 81 89 L 74 81 L 67 88 L 66 88 L 56 98 L 55 98 L 50 103 L 49 103 L 40 111 L 39 111 L 37 113 L 36 113 L 33 116 L 32 116 L 30 118 L 29 118 L 27 120 L 26 120 L 18 126 L 17 126 L 13 129 L 12 129 L 11 130 L 4 133 L 6 133 L 7 132 L 9 132 L 10 131 L 15 130 L 18 128 L 20 128 L 23 126 L 25 126 L 26 125 L 27 125 L 28 124 L 29 124 L 30 123 L 31 123 L 32 122 L 33 122 L 34 121 L 35 121 L 36 120 L 37 120 L 38 119 L 39 119 L 40 118 L 41 118 L 42 117 L 49 114 L 51 112 L 56 110 L 58 108 L 61 107 L 63 105 L 64 105 L 66 103 L 67 103 L 70 100 L 71 100 L 79 93 L 79 92 L 81 90 Z" fill="#c36a2d" fill-rule="evenodd"/>
<path d="M 70 77 L 68 75 L 66 75 L 45 97 L 49 94 L 50 94 L 52 92 L 53 92 L 56 89 L 57 89 L 59 87 L 60 87 L 64 83 L 65 83 L 70 78 Z" fill="#c36a2d" fill-rule="evenodd"/>
<path d="M 119 74 L 117 74 L 116 75 L 115 75 L 104 81 L 102 81 L 99 83 L 97 83 L 96 84 L 95 84 L 95 98 L 94 99 L 94 103 L 93 104 L 92 109 L 93 108 L 98 106 L 100 104 L 103 103 L 105 101 L 106 101 L 109 98 L 110 98 L 115 93 L 115 92 L 117 89 L 117 85 L 118 84 L 118 75 Z" fill="#c36a2d" fill-rule="evenodd"/>
<path d="M 75 70 L 74 71 L 75 74 L 84 83 L 84 84 L 85 84 L 87 82 L 87 81 L 77 70 Z" fill="#c36a2d" fill-rule="evenodd"/>
<path d="M 87 39 L 72 39 L 71 40 L 69 40 L 68 41 L 67 41 L 59 49 L 59 50 L 56 53 L 56 54 L 54 56 L 54 57 L 52 59 L 52 60 L 50 63 L 52 63 L 53 62 L 56 62 L 57 61 L 72 61 L 73 62 L 74 62 L 75 61 L 75 60 L 76 59 L 76 58 L 77 57 L 77 56 L 78 55 L 78 54 L 79 53 L 79 52 L 80 51 L 83 44 Z" fill="#c36a2d" fill-rule="evenodd"/>
<path d="M 129 11 L 126 11 L 125 12 L 124 12 L 123 13 L 116 16 L 110 21 L 109 21 L 95 35 L 95 36 L 92 39 L 92 40 L 88 45 L 87 48 L 85 50 L 85 51 L 80 60 L 80 62 L 78 64 L 78 65 L 89 76 L 89 77 L 92 80 L 94 80 L 95 79 L 96 79 L 97 78 L 99 78 L 104 75 L 106 75 L 107 74 L 110 73 L 112 71 L 117 69 L 119 67 L 120 67 L 122 65 L 123 65 L 125 63 L 126 63 L 140 49 L 140 48 L 145 42 L 145 41 L 146 40 L 149 33 L 147 31 L 146 31 L 144 29 L 143 29 L 134 20 L 134 19 L 131 16 Z M 120 27 L 126 27 L 127 28 L 128 28 L 132 32 L 132 33 L 133 34 L 133 39 L 132 40 L 132 41 L 128 45 L 127 45 L 126 46 L 121 46 L 120 45 L 119 45 L 115 41 L 115 40 L 114 39 L 114 33 L 116 31 L 116 30 Z" fill="#c36a2d" fill-rule="evenodd"/>
<path d="M 134 8 L 133 9 L 134 10 L 135 13 L 137 15 L 137 16 L 147 26 L 148 26 L 150 28 L 152 28 L 152 27 L 153 26 L 153 24 L 154 23 L 154 21 L 155 20 L 155 17 L 156 16 L 156 12 L 157 11 L 157 5 L 156 4 L 153 4 L 152 5 L 145 5 L 144 6 L 140 6 L 139 7 L 136 7 L 135 8 Z" fill="#c36a2d" fill-rule="evenodd"/>
</svg>